<svg xmlns="http://www.w3.org/2000/svg" viewBox="0 0 820 220" role="img" aria-labelledby="title">
  <title id="title">CalisTrack</title>
  <g transform="translate(8 8) scale(.2)">
    <rect x="66" y="66" width="892" height="892" rx="238" fill="#ffffff" stroke="#e2e8f0" stroke-width="4"/>
    <path fill="#8bd11f" d="M760 232H428c-141 0-244 104-244 248v75c0 145 103 237 244 237h326l-65-96H430c-92 0-150-52-150-143v-70c0-92 61-155 153-155h265l62-96Z"/>
    <g fill="#0b0f11"><path d="M274 474l77 17 112 42 143 18 112 40-23 61-104-22-91-37-82-12-91-39-66-34 13-34Z"/><circle cx="766" cy="603" r="45"/><path d="M704 582c26-8 47 2 61 27l-28 42-55-9 22-60ZM662 620c19-5 37 2 48 18l-18 116c-2 13 5 21 20 24l45 9-3 18h-101c-16-8-22-22-18-42l27-143Z"/></g>
  </g>
  <text x="238" y="142" fill="#0b0f11" font-family="Inter,Arial,sans-serif" font-size="104" font-weight="800" letter-spacing="-6">Calis</text>
  <text x="476" y="142" fill="#8bd11f" font-family="Inter,Arial,sans-serif" font-size="104" font-weight="800" letter-spacing="-6">Track</text>
</svg>
