<svg xmlns="http://www.w3.org/2000/svg" viewBox="0 0 1024 1024" role="img" aria-labelledby="title">
  <title id="title">CalisTrack</title>
  <rect x="64" y="64" width="896" height="896" rx="218" fill="#b7f36b"/>
  <path fill="#0b0f11" d="M252.4 294.1 220.8 334.2 203.7 366.5 189.2 411.8 185.2 442.8V613.5L189.2 640.6 210.3 693.7 232.7 724.7 252.4 744.1 303.8 776.4 331.5 786.7 368.4 794.5 772.9 795.8 699.1 697.5 678 698.8 674.1 689.8 630.6 671.7 625.3 665.2 629.3 635.5 642.4 603.2 645.1 581.2 653 569.5 692.5 556.6 711 539.8 740 543.7 753.1 561.8 765 560.5 771.6 555.3 775.5 557.9 783.4 545 794 541.1 803.2 528.2 808.5 530.7 813.7 526.9 816.4 517.8 813.7 499.7 796.6 472.6 778.2 463.5 763.7 464.8 747.9 475.2 737.3 492H730.7L714.9 477.7 691.2 467.4 645.1 459.6 614.8 462.2 570 440.2H547.6L525.2 448 467.2 446.7 448.8 441.5 414.5 422.1 364.4 417 344.7 396.3 330.2 398.9 318.3 410.5 293.3 424.7 286.7 436.4 288 442.8 317 440.2 327.5 444.1H347.3L418.4 472.6 444.8 493.3 465.9 499.7 500.1 517.8 544.9 526.9H580.5L599 539.8 618.7 547.6 609.5 566.9 604.2 608.3V682L614.8 692.4 639.8 694.9 658.3 701.4 377.6 702.7 343.3 694.9 314.4 679.4 293.3 658.7 280.1 635.5 274.8 614.8V428.6L284 396.3 299.9 369.1 320.9 347.2 353.9 326.5 394.7 316.1H720.2L784.8 223 389.5 224.3 349.9 233.4 318.3 246.3 284 267Z"/>
</svg>
